<?xml version="1.0" standalone="no"?>
<!DOCTYPE svg PUBLIC "-//W3C//DTD SVG 20010904//EN"
 "http://www.w3.org/TR/2001/REC-SVG-20010904/DTD/svg10.dtd">
<svg version="1.0" xmlns="http://www.w3.org/2000/svg"
 width="1254.000000pt" height="1254.000000pt" viewBox="0 0 1254.000000 1254.000000"
 preserveAspectRatio="xMidYMid meet">
<g id="SVGRepo_bgCarrier" stroke-width="0"></g><g id="SVGRepo_tracerCarrier" stroke-linecap="round" stroke-linejoin="round"></g><g id="SVGRepo_iconCarrier"><circle fill="#f5f5f5" cx="627" cy="627" r="627"></circle></g>
<g transform="translate(0.000000,1254.000000) scale(0.100000,-0.100000)"
fill="#000000" stroke="none">
<path d="M5905 12530 c-636 -38 -1274 -170 -1820 -375 -1059 -398 -1927 -1022
-2657 -1910 -178 -217 -433 -590 -588 -860 -413 -722 -692 -1545 -789 -2325
-43 -348 -46 -401 -46 -790 1 -387 6 -476 46 -791 17 -138 26 -195 44 -289 3
-14 8 -41 11 -60 47 -271 162 -677 285 -1006 253 -676 581 -1233 1081 -1832
165 -198 586 -619 783 -783 813 -676 1707 -1130 2650 -1345 185 -42 455 -93
575 -108 674 -88 1253 -71 1905 53 718 138 1322 361 1951 721 939 538 1762
1345 2325 2280 164 273 357 671 474 980 228 599 360 1214 396 1845 12 214 6
700 -10 845 -5 47 -15 134 -21 195 -12 118 -46 329 -78 490 -196 971 -630
1905 -1263 2715 -425 545 -977 1043 -1569 1417 -496 314 -1177 608 -1715 742
-293 73 -666 138 -990 171 -224 23 -753 34 -980 20z m1445 -3385 c756 -9 1391
-40 1448 -69 17 -9 66 -55 109 -103 276 -309 495 -668 851 -1395 125 -257 128
-261 176 -242 13 5 16 25 16 118 0 123 13 163 62 199 23 18 48 21 181 25 207
6 317 -3 359 -31 57 -39 73 -79 73 -187 0 -154 -18 -169 -264 -229 -91 -23
-169 -41 -172 -41 -4 0 -9 9 -12 20 -4 18 -14 20 -74 20 -38 0 -73 4 -79 10
-10 10 -84 -8 -84 -21 0 -27 138 -293 253 -489 62 -105 86 -137 207 -272 53
-59 108 -129 122 -155 55 -100 85 -285 89 -548 l3 -130 -123 -31 c-79 -19
-124 -27 -126 -20 -2 6 -13 52 -25 101 -34 141 -99 332 -142 419 -72 143 -168
219 -294 232 -130 14 -386 -35 -597 -115 -213 -80 -478 -233 -610 -351 l-57
-52 -253 -21 c-241 -20 -328 -21 -2037 -24 l-1785 -4 -331 25 -331 24 -84 68
c-277 224 -652 390 -993 440 -263 39 -391 -21 -491 -231 -45 -94 -107 -276
-146 -430 -12 -49 -23 -91 -24 -92 0 -1 -30 7 -65 17 -36 10 -91 24 -123 30
l-57 11 0 77 c0 119 19 349 36 431 32 154 57 195 251 413 55 62 103 131 165
240 125 220 230 426 224 437 -4 5 -22 15 -42 21 -27 9 -38 9 -50 0 -9 -9 -33
-11 -69 -7 -54 5 -77 -3 -87 -34 -4 -13 -307 59 -365 87 -56 28 -73 66 -76
166 -2 71 2 90 23 133 42 85 62 90 330 90 310 0 317 -5 327 -222 6 -108 7
-114 29 -119 13 -3 27 -4 32 -2 5 1 98 179 205 393 329 654 490 916 760 1231
66 77 105 115 128 123 126 44 1653 85 2774 75 215 -2 590 -6 835 -9z m-4798
-2956 c8 -36 10 -33 -65 -91 -19 -15 -48 -47 -64 -72 -23 -34 -33 -42 -42 -33
-36 36 34 170 114 218 38 24 48 20 57 -22z m7493 21 c59 -36 115 -130 115
-191 0 -36 -16 -46 -31 -18 -18 35 -90 109 -121 125 -22 11 -28 22 -28 47 0
28 14 57 28 57 3 0 19 -9 37 -20z m-7205 -112 c180 -77 232 -326 97 -466 -61
-64 -111 -86 -206 -90 -82 -4 -89 -2 -151 30 -109 57 -169 165 -157 288 18
202 226 321 417 238z m7100 0 c188 -80 233 -340 83 -479 -65 -60 -114 -79
-205 -79 -67 0 -84 4 -139 33 -145 74 -198 242 -124 393 67 137 237 196 385
132z m-6531 -175 c196 -122 108 -427 -124 -426 -104 0 -200 72 -224 168 -14
57 -14 72 4 132 42 140 217 204 344 126z m5960 0 c67 -42 105 -108 109 -192 4
-81 -22 -139 -86 -188 -150 -115 -372 -9 -374 179 -2 185 195 297 351 201z
m-5159 -169 c203 -17 407 -59 442 -90 42 -38 142 -110 206 -148 79 -47 158
-79 253 -100 205 -45 1047 -166 1154 -166 147 0 1134 150 1250 190 109 37 245
119 350 210 37 32 56 39 173 64 114 23 550 71 560 61 2 -2 -25 -39 -61 -83
-235 -289 -260 -422 -78 -422 161 0 992 86 1406 145 281 40 367 61 464 110 70
35 266 89 284 78 12 -7 0 -747 -19 -1220 -10 -268 -11 -368 -3 -386 8 -18 8
-62 2 -153 -6 -71 -6 -160 -2 -199 6 -56 4 -77 -9 -105 -66 -136 -422 -183
-1387 -184 -471 -1 -483 -1 -615 24 -133 25 -142 25 -620 23 -267 0 -766 -6
-1110 -11 -379 -6 -832 -7 -1150 -2 -289 5 -752 12 -1030 16 l-505 7 -175 -29
-175 -29 -460 1 c-624 0 -1031 24 -1206 69 -91 24 -168 63 -187 95 -17 27 -18
66 -14 575 1 44 -3 170 -9 280 -5 110 -12 433 -16 719 -6 507 -6 518 13 513
10 -3 55 -13 99 -22 44 -10 110 -33 148 -51 102 -52 220 -81 446 -114 433 -62
1279 -150 1444 -150 118 0 155 53 107 158 -26 58 -127 203 -195 280 -30 35
-55 65 -55 68 0 2 24 2 53 -1 28 -3 131 -12 227 -21z m-375 -38 c43 -33 74
-95 75 -146 0 -20 -10 -56 -22 -80 -67 -132 -258 -130 -319 4 -42 94 -8 190
86 241 47 25 134 16 180 -19z m5056 11 c109 -58 125 -210 29 -291 -47 -39
-102 -52 -158 -37 -160 42 -186 257 -40 330 56 28 114 27 169 -2z"/>
<path d="M5340 8924 c-773 -15 -1647 -51 -1712 -70 -20 -6 -167 -230 -265
-404 -90 -159 -250 -479 -343 -684 -111 -247 -221 -519 -213 -526 4 -3 121 -3
258 1 1449 43 4180 47 6043 9 500 -10 600 -14 614 -27 15 -13 16 -11 8 24 -23
99 -303 730 -442 993 -157 296 -350 608 -383 615 -48 11 -525 35 -1105 56
-280 9 -2131 19 -2460 13z"/>
<path d="M9761 7160 c14 -31 19 -36 19 -24 0 6 -7 19 -16 30 -14 18 -14 18 -3
-6z"/>
<path d="M4756 7134 c-9 -8 -16 -19 -16 -24 0 -17 34 -28 58 -19 25 10 26 13
12 40 -13 23 -33 24 -54 3z"/>
<path d="M7732 7138 c-29 -29 4 -67 44 -51 27 10 9 63 -21 63 -6 0 -16 -5 -23
-12z"/>
<path d="M2746 7115 c-9 -26 -7 -32 5 -12 6 10 9 21 6 23 -2 3 -7 -2 -11 -11z"/>
<path d="M2731 7064 c0 -11 3 -14 6 -6 3 7 2 16 -1 19 -3 4 -6 -2 -5 -13z"/>
<path d="M9802 7050 c0 -8 4 -26 8 -40 6 -20 8 -21 8 -5 0 11 -3 29 -8 40 -5
12 -8 14 -8 5z"/>
<path d="M2721 7024 c0 -11 3 -14 6 -6 3 7 2 16 -1 19 -3 4 -6 -2 -5 -13z"/>
<path d="M2706 6964 c-4 -20 -5 -38 -3 -40 3 -3 8 11 11 32 4 20 5 38 3 40 -3
3 -8 -11 -11 -32z"/>
<path d="M9821 6964 c0 -11 3 -14 6 -6 3 7 2 16 -1 19 -3 4 -6 -2 -5 -13z"/>
<path d="M9832 6920 c0 -14 4 -38 8 -55 7 -27 8 -27 8 -5 0 14 -4 39 -8 55 -7
27 -8 27 -8 5z"/>
<path d="M2692 6890 c0 -14 2 -19 5 -12 2 6 2 18 0 25 -3 6 -5 1 -5 -13z"/>
<path d="M2682 6835 c0 -16 2 -22 5 -12 2 9 2 23 0 30 -3 6 -5 -1 -5 -18z"/>
<path d="M9852 6800 c0 -19 2 -27 5 -17 2 9 2 25 0 35 -3 9 -5 1 -5 -18z"/>
<path d="M2673 6765 c0 -22 2 -30 4 -17 2 12 2 30 0 40 -3 9 -5 -1 -4 -23z"/>
<path d="M9863 6725 c0 -22 2 -30 4 -17 2 12 2 30 0 40 -3 9 -5 -1 -4 -23z"/>
<path d="M2663 6675 c0 -27 2 -38 4 -22 2 15 2 37 0 50 -2 12 -4 0 -4 -28z"/>
<path d="M9873 6625 c0 -27 2 -38 4 -22 2 15 2 37 0 50 -2 12 -4 0 -4 -28z"/>
<path d="M2654 6535 c0 -49 1 -71 3 -48 2 23 2 64 0 90 -2 26 -3 8 -3 -42z"/>
<path d="M9884 6445 c0 -60 1 -84 3 -52 2 32 2 81 0 110 -2 29 -3 3 -3 -58z"/>
<path d="M2643 6390 c0 -30 2 -43 4 -27 2 15 2 39 0 55 -2 15 -4 2 -4 -28z"/>
<path d="M2692 5990 c-19 -4 -49 -23 -68 -41 -83 -80 -61 -215 42 -261 66 -29
123 -19 177 32 38 35 41 42 45 101 3 55 0 69 -20 98 -39 59 -108 86 -176 71z
m94 -77 c46 -30 48 -118 3 -156 -52 -43 -126 -25 -156 37 -14 31 -15 39 -2 73
25 66 94 87 155 46z"/>
<path d="M9761 5990 c-72 -17 -121 -81 -121 -161 0 -60 31 -107 90 -136 54
-28 89 -29 138 -4 50 25 68 48 82 99 32 123 -67 229 -189 202z m84 -64 c117
-49 51 -226 -70 -186 -45 15 -65 44 -65 95 1 46 15 68 56 90 36 18 37 18 79 1z"/>
<path d="M3239 5845 c-59 -32 -80 -102 -51 -169 48 -107 195 -100 238 12 16
39 16 45 0 85 -28 73 -120 108 -187 72z m119 -62 c47 -52 9 -137 -61 -137 -99
0 -120 134 -27 167 26 9 64 -4 88 -30z"/>
<path d="M9164 5841 c-47 -29 -64 -59 -64 -113 0 -41 5 -54 33 -84 80 -87 227
-32 227 86 0 100 -111 163 -196 111z m115 -36 c62 -32 57 -128 -7 -154 -97
-40 -168 95 -79 149 38 24 49 24 86 5z"/>
<path d="M2862 4415 c-113 -32 -190 -113 -282 -297 -54 -108 -61 -145 -31
-172 24 -22 291 -57 695 -91 468 -39 511 -40 541 -21 14 9 25 26 25 39 0 50
-121 492 -140 511 -28 29 -90 34 -440 41 -263 4 -324 3 -368 -10z"/>
<path d="M9065 4419 c-71 -3 -140 -7 -151 -8 -50 -3 -62 -27 -124 -266 -33
-126 -60 -247 -60 -268 0 -67 -1 -67 500 -26 456 36 719 69 757 95 35 22 29
52 -37 182 -90 177 -169 258 -283 288 -57 15 -360 17 -602 3z"/>
<path d="M4092 4408 c-10 -12 1 -64 59 -274 39 -142 78 -274 86 -293 10 -20
29 -39 47 -46 32 -13 530 -37 1505 -72 444 -15 504 -15 965 1 739 25 1447 56
1481 65 47 12 68 56 124 255 92 328 96 345 79 362 -13 13 -85 13 -609 -5
-1345 -47 -1563 -49 -2344 -26 -579 17 -1017 32 -1230 41 -126 5 -152 4 -163
-8z"/>
<path d="M3705 5683 c-46 -11 -92 -84 -80 -126 19 -67 56 -97 121 -97 52 0
104 53 104 107 0 55 -31 99 -77 112 -21 6 -40 10 -43 10 -3 -1 -14 -4 -25 -6z"/>
<path d="M8750 5677 c-31 -16 -70 -73 -70 -104 0 -110 153 -154 210 -61 37 62
16 138 -45 164 -42 17 -63 17 -95 1z"/>
</g>
</svg>
