<svg xmlns="http://www.w3.org/2000/svg" viewBox="0 0 32 32" width="32" height="32">
  <rect width="32" height="32" rx="7" fill="#1a1a1a"/>
  <rect x="1" y="1" width="30" height="30" rx="6" fill="rgba(249,115,22,0.06)" stroke="rgba(249,115,22,0.25)" stroke-width="1"/>
  <!-- RSX Type-S side profile: compact front, flat hood, steep C-pillar fastback -->
  <path fill="#ffffff" d="M 3 23 L 3 19 L 5 17 L 9 16 L 11 10 L 20 10 L 24 17 L 28 18 L 29 20 L 29 23 A 4 4 0 0 0 21 23 L 11 23 A 4 4 0 0 0 3 23 Z"/>
  <!-- Dark glass area: upright windshield, flat roof, steep C-pillar -->
  <path fill="#1a1a1a" d="M 12 21 L 13 11.5 L 20 11.5 L 24 18 L 24 21 Z"/>
  <!-- Wheels: dark tire, white rim ring, orange hub -->
  <circle cx="7" cy="23" r="4" fill="#1a1a1a" stroke="#ffffff" stroke-width="1.5"/>
  <circle cx="7" cy="23" r="1.3" fill="#f97316"/>
  <circle cx="25" cy="23" r="4" fill="#1a1a1a" stroke="#ffffff" stroke-width="1.5"/>
  <circle cx="25" cy="23" r="1.3" fill="#f97316"/>
</svg>
